<svg xmlns:dc="http://purl.org/dc/elements/1.1/" xmlns:cc="http://creativecommons.org/ns#" xmlns:rdf="http://www.w3.org/1999/02/22-rdf-syntax-ns#" xmlns:svg="http://www.w3.org/2000/svg" xmlns="http://www.w3.org/2000/svg" xmlns:xlink="http://www.w3.org/1999/xlink" id="svg126331" viewBox="0 0 1024 340" height="340px" width="1024px" version="1.1">
  <metadata id="metadata126337">
    <rdf:rdf>
      <cc:work rdf:about="">
        <dc:format>image/svg+xml</dc:format>
        <dc:type rdf:resource="http://purl.org/dc/dcmitype/StillImage"></dc:type>
      </cc:work>
    </rdf:rdf>
  </metadata>
  <defs id="defs126335"></defs>
  <linearGradient spreadMethod="pad" y2="30%" x2="-10%" y1="120%" x1="30%" id="3d_gradient2-logo-a07a25b0-1b0a-47ef-94a8-e1a5011d1f13">
    <stop id="stop126312" stop-opacity="1" stop-color="#ffffff" offset="0%"></stop>
    <stop id="stop126314" stop-opacity="1" stop-color="#000000" offset="100%"></stop>
  </linearGradient>
  <linearGradient gradientTransform="rotate(-30)" spreadMethod="pad" y2="30%" x2="-10%" y1="120%" x1="30%" id="3d_gradient3-logo-a07a25b0-1b0a-47ef-94a8-e1a5011d1f13">
    <stop id="stop126317" stop-opacity="1" stop-color="#ffffff" offset="0%"></stop>
    <stop id="stop126319" stop-opacity="1" stop-color="#cccccc" offset="50%"></stop>
    <stop id="stop126321" stop-opacity="1" stop-color="#000000" offset="100%"></stop>
  </linearGradient>
  <g id="logo-group">
    <image xlink:href="" id="container" x="20" y="144" width="480" height="600" style="display: none;" transform="translate(0 0)"></image>
    <g id="logo-center" transform="translate(232.47150818181814 0)">
      <image xlink:href="" id="icon_container" style="display: none;"></image>
      <g id="slogan" style="font-style:normal;font-weight:700;font-size:32px;line-height:1;font-family:'Brandmark1 Bold Color';font-variant-ligatures:none;text-align:center;text-anchor:middle" transform="translate(-487 -200)"></g>
      <g id="title" style="font-style:normal;font-weight:700;font-size:72px;line-height:1;font-family:'Brandmark1 Bold Color';font-variant-ligatures:normal;text-align:center;text-anchor:middle" transform="translate(-276.3 -200)">
        <g id="path126340" aria-label="R" transform="translate(0 312.4327272727273) translate(50 35.370909090909095) scale(1.2727272727272727) translate(-340.45662 53.64)"> <path class="c1" d="M121.90405,128.08252h-13.65918l-13.37109-19.27637V97.83984h2.16016 c3.40527,0,5.9541-0.74902,7.56738-2.23242c1.38281-1.27441,2.08105-3.11084,2.08105-5.47266 c0-2.4624-0.71973-4.33447-2.13867-5.55859c-1.4541-1.26025-3.75879-1.92969-6.64648-1.92969h-8.49609v45.43604H78.09595V71.91748 h20.66553c3.16113,0,6.0127,0.45361,8.48926,1.34619c2.44141,0.88574,4.5293,2.21094,6.20703,3.93164 c3.10352,3.18994,4.74512,7.71191,4.74512,13.0835c0,4.81738-1.33203,8.79932-3.95996,11.83789 c-1.8291,2.10986-4.24121,3.72266-7.2002,4.81006L121.90405,128.08252z" transform="translate(262.36067 -125.55748)" stroke-width="0" stroke-linejoin="miter" stroke-miterlimit="2" fill="#FA0625" stroke="#FA0625"></path> </g>
        <g id="path126342" aria-label="t" transform="translate(0 312.4327272727273) translate(111.33734727272731 39.40290909090909) scale(1.2727272727272727) translate(-386.65025 50.472)"> <path class="c1" d="M112.99855,114.75918v10.8009c-3.02393,0-5.9043-0.57605-8.64062-1.72815 c-2.66406-1.08008-5.04053-2.73621-7.05664-4.75238c-2.08838-2.01617-3.67236-4.3924-4.82422-7.05664 c-1.15234-2.73621-1.72852-5.68848-1.72852-8.71277V75.44375l10.80127-3.60028v12.8891h11.44873v10.08087h-11.44873v8.4967 C101.54982,109.64669,106.66212,114.75918,112.99855,114.75918z" transform="translate(295.9017 -122.31547)" stroke-width="0" stroke-linejoin="miter" stroke-miterlimit="2" fill="#FA0625" stroke="#FA0625"></path> </g>
        <g id="path126344" aria-label="c" transform="translate(0 312.4327272727273) translate(141.08877272727273 55.256) scale(1.2727272727272727) translate(-408.02637 38.016)"> <path class="c1" d="M94.56532,123.75997c-2.44824-1.00812-4.6084-2.52026-6.55261-4.3924 c-1.87213-1.87219-3.31226-4.10437-4.39233-6.55255c-1.00806-2.52026-1.58411-5.18445-1.58411-7.99274 c0-2.73621,0.57605-5.40045,1.58411-7.99268c1.08008-2.37622,2.5202-4.6084,4.39233-6.48053 c1.94421-1.87219,4.10437-3.38434,6.55261-4.3924c2.5202-1.08014,5.25647-1.65619,7.99268-1.65619 c3.31226,0,6.69653,0.86414,9.57678,2.37622c2.88025,1.51215,5.32849,3.74432,7.20068,6.33655l-8.78479,6.26453 c-1.87219-2.59216-4.8244-4.17633-7.99268-4.17633c-5.32849,0-9.72083,4.3924-9.72083,9.72083 c0,5.40045,4.39233,9.72089,9.72083,9.72089c3.24023,0,6.1925-1.58417,7.99268-4.17639l8.92883,6.12054 c-3.81641,5.54449-10.15295,8.85675-16.92151,8.85675C99.82179,125.34408,97.08553,124.84005,94.56532,123.75997z" transform="translate(325.9901 -122.31648)" stroke-width="0" stroke-linejoin="miter" stroke-miterlimit="2" fill="#FA0625" stroke="#FA0625"></path> </g>
        <g id="path126346" aria-label="L" transform="translate(0 312.4327272727273) translate(195.26989272727272 35.370909090909095) scale(1.2727272727272727) translate(-448.59725 53.64)"> <path class="c1" d="M81.71045,75.51782l11.30469-3.6001v45.43604h25.27441v10.72852h-36.5791V75.51782z" transform="translate(366.8868 -125.55772)" stroke-width="0" stroke-linejoin="miter" stroke-miterlimit="2" fill="#FA0625" stroke="#FA0625"></path> </g>
        <g id="path126348" aria-label="E" transform="translate(0 312.4327272727273) translate(248.82386363636363 35.370909090909095) scale(1.2727272727272727) translate(-488.67537 53.64)"> <path class="c1" d="M81.8186,128.08252h36.36279v-10.51367H81.8186V128.08252z M81.8186,105.47217h36.36279v-10.729H81.8186 V105.47217z M81.8186,71.91748v10.729h36.36279v-10.729H81.8186z" transform="translate(406.85677 -125.55748)" stroke-width="0" stroke-linejoin="miter" stroke-miterlimit="2" fill="#FA0625" stroke="#FA0625"></path> </g>
        <path id="path126350" style="font-style:normal;font-weight:700;font-size:72px;line-height:1;font-family:'Brandmark1 Bold Color';font-variant-ligatures:normal;text-align:center;text-anchor:middle" d="m 536.10537,0.504 c 2.376,0 4.24801,-1.872 4.24801,-4.248 0,-2.376 -1.87201,-4.248 -4.24801,-4.248 -2.376,0 -4.31999,1.872 -4.31999,4.248 0,2.376 1.94399,4.248 4.31999,4.248 z" stroke-width="0" stroke-linejoin="miter" stroke-miterlimit="2" fill="#fa0625" stroke="#fa0625" transform="translate(0 312.4327272727273) translate(306.2366036363636 93.46836363636363) scale(1.2727272727272727) translate(-531.78538 7.992)"></path>
        <g id="path126352" aria-label="c" transform="translate(0 312.4327272727273) translate(324.5206036363636 55.256) scale(1.2727272727272727) translate(-544.15138 38.016)"> <path class="c1" d="M94.56532,123.75997c-2.44824-1.00812-4.6084-2.52026-6.55261-4.3924 c-1.87213-1.87219-3.31226-4.10437-4.39233-6.55255c-1.00806-2.52026-1.58411-5.18445-1.58411-7.99274 c0-2.73621,0.57605-5.40045,1.58411-7.99268c1.08008-2.37622,2.5202-4.6084,4.39233-6.48053 c1.94421-1.87219,4.10437-3.38434,6.55261-4.3924c2.5202-1.08014,5.25647-1.65619,7.99268-1.65619 c3.31226,0,6.69653,0.86414,9.57678,2.37622c2.88025,1.51215,5.32849,3.74432,7.20068,6.33655l-8.78479,6.26453 c-1.87219-2.59216-4.8244-4.17633-7.99268-4.17633c-5.32849,0-9.72083,4.3924-9.72083,9.72083 c0,5.40045,4.39233,9.72089,9.72083,9.72089c3.24023,0,6.1925-1.58417,7.99268-4.17639l8.92883,6.12054 c-3.81641,5.54449-10.15295,8.85675-16.92151,8.85675C99.82179,125.34408,97.08553,124.84005,94.56532,123.75997z" transform="translate(462.11511 -122.31648)" stroke-width="0" stroke-linejoin="miter" stroke-miterlimit="2" fill="#FA0625" stroke="#FA0625"></path> </g>
        <g id="path126354" aria-label="o" transform="translate(0 312.4327272727273) translate(374.94462000000004 55.16436363636364) scale(1.2727272727272727) translate(-581.77025 38.088)"> <path class="c1" d="M92.04591,123.68795c-2.44824-1.00812-4.68066-2.52026-6.55273-4.3924s-3.38428-4.10437-4.39233-6.55255 c-1.08008-2.52026-1.58423-5.18445-1.58423-7.99268c0-2.73627,0.50415-5.40051,1.58423-7.99274 c1.00806-2.37616,2.52026-4.6084,4.39233-6.48053c1.87207-1.87219,4.10449-3.38428,6.55273-4.3924 c2.52002-1.08008,5.18433-1.65613,7.99268-1.65613c2.73608,0,5.40039,0.57605,7.99268,1.65613 c2.37598,1.00812,4.6084,2.5202,6.48047,4.3924c1.87207,1.87213,3.38428,4.03235,4.39233,6.48053 c1.08008,2.59222,1.65625,5.25647,1.65625,7.99274c0,2.80823-0.57617,5.47241-1.65625,7.99268 c-1.00806,2.44818-2.52026,4.68042-4.39233,6.55255s-4.03223,3.38428-6.48047,4.3924 c-2.59229,1.08008-5.25659,1.58411-7.99268,1.58411C97.23024,125.27206,94.56593,124.76803,92.04591,123.68795z M100.03859,114.47115c5.32837,0,9.7207-4.32037,9.7207-9.72083c0-5.32849-4.39233-9.72089-9.7207-9.72089 c-5.40063,0-9.72095,4.3924-9.72095,9.72089C90.31764,110.15078,94.63795,114.47115,100.03859,114.47115z" transform="translate(502.25363 -122.31652)" stroke-width="0" stroke-linejoin="miter" stroke-miterlimit="2" fill="#FA0625" stroke="#FA0625"></path> </g>
        <g id="path126356" aria-label="m" transform="translate(0 312.4327272727273) translate(434.64825636363645 55.256) scale(1.2727272727272727) translate(-626.68025 38.016)"> <path class="c1" d="M129.6338,102.23006v22.60999h-10.80103v-22.60999c0-3.60028-2.95239-6.55255-6.48071-6.55255 c-3.6001,0-6.55249,2.95227-6.55249,6.55255v22.60999H94.99855v-22.60999c0-3.60028-2.95215-6.55255-6.48047-6.55255 c-3.60034,0-6.55249,2.95227-6.55249,6.55255v22.60999H71.16457V84.3005h10.80103v1.87219 c2.01611-0.86407,4.24829-1.29614,6.55249-1.29614c4.46436,0,8.64087,1.72815,11.8811,4.75244 c3.24023-3.02429,7.41675-4.75244,11.95288-4.75244c4.6084,0,8.92896,1.80017,12.24121,5.11249 C127.83351,93.22933,129.6338,97.62167,129.6338,102.23006z" transform="translate(555.51568 -122.3165)" stroke-width="0" stroke-linejoin="miter" stroke-miterlimit="2" fill="#FA0625" stroke="#FA0625"></path> </g>
              </g>
      <image xlink:href="" id="icon" x="-6474.092857142858" y="-3925.1428571428573" style="display: none;"></image>
    </g>
  </g>
</svg>